<?xml version="1.0" encoding="utf-8"?>
<!-- Generator: Adobe Illustrator 16.0.0, SVG Export Plug-In . SVG Version: 6.00 Build 0)  -->
<!DOCTYPE svg PUBLIC "-//W3C//DTD SVG 1.1//EN" "http://www.w3.org/Graphics/SVG/1.1/DTD/svg11.dtd">
<svg version="1.1" id="Layer_1" xmlns="http://www.w3.org/2000/svg" xmlns:xlink="http://www.w3.org/1999/xlink" x="0px" y="0px"
	 width="1710.605px" height="666.646px" viewBox="0 0 1710.605 666.646" enable-background="new 0 0 1710.605 666.646"
	 xml:space="preserve">
<g>
	<path fill="#008297" d="M1281.125,0c56.791,58.708,90.899,133.824,90.899,215.714c0,187.874-179.436,340.173-400.775,340.173
		h-0.684c-0.112,0-0.227,0.006-0.338,0c-13.821-0.201-24.26-0.007-36.818,3.031c-22.12,5.347-42.1,17.822-57.762,35.089
		l-21.264,23.44l-11.444-13.255c-25.906-30.022-62.445-48.048-101.012-48.299c-0.256,0-0.512-0.006-0.768-0.006
		c-0.111,0-0.218,0-0.325,0h-1.472c-221.34,0-400.776-152.3-400.776-340.173c0-81.891,34.108-157.007,90.9-215.714
		C262.98,41.31,141.308,171.79,141.308,326.468c0,183.007,170.279,332.201,383.686,339.813v0.365h231.888h196.849h231.885v-0.365
		c213.408-7.612,383.687-156.806,383.687-339.813C1569.303,171.79,1447.633,41.31,1281.125,0"/>
	<path fill="#00A0AC" d="M82.542,332.398c0-124.667,60.735-208.331,166.767-290.537c3.57-2.765,19.986-21.265,15.783-19.795
		C107.69,77.195,0,194.329,0,331.583c0,141.892,110.306,254.662,276.232,306.945c1.471,0.46,2.314-1.707,0.961-2.468
		C156.079,567.818,82.542,462.164,82.542,332.398"/>
	<path fill="#00A0AC" d="M1628.066,335.646c0-124.671-60.737-208.331-166.769-290.536c-3.566-2.768-19.987-21.266-15.781-19.794
		c157.4,55.128,265.089,172.258,265.089,309.517c0,141.888-110.306,254.661-276.23,306.941c-1.471,0.466-2.315-1.704-0.963-2.469
		C1554.53,571.064,1628.066,465.412,1628.066,335.646"/>
	<path fill="#00A0AC" d="M631.292,425.986c-31.401,16.49-86.528-17.791-125.379-78.954c-19.229-30.272-31.477-62.624-35.357-89.632
		c-3.066-21.324-1.348-42.46,5.108-61.579c2.228-6.603,4.915-12.47,8.841-17.133c0.055-0.077,0.1-0.165,0.153-0.237
		c0.022-0.033,0.048-0.037,0.076-0.022c1.456-1.699,3.029-3.265,4.748-4.656c3.271-2.875,6.71-5.187,9.717-6.717
		c3.659-1.864,7.664-3.223,12.02-3.223c8.991,0,16.851,4.993,21.272,12.466c0.043,0.076,0.088,0.155,0.132,0.232
		c0.391,0.677,0.754,1.374,1.085,2.089c0.077,0.163,0.154,0.33,0.227,0.499c0.286,0.636,0.539,1.292,0.773,1.957
		c0.082,0.231,0.167,0.459,0.242,0.693c0.199,0.628,0.367,1.267,0.523,1.912c0.067,0.272,0.142,0.541,0.2,0.815
		c0.139,0.659,0.238,1.332,0.327,2.008c0.036,0.264,0.086,0.52,0.114,0.788c0.097,0.939,0.152,1.892,0.152,2.86
		c0,1.182-0.249,3.613-0.249,3.681c0,9.454,7.159,17.119,15.986,17.119c5.738,0,14.064-8.191,14.391-8.596
		c1.376-1.705,3.189-4.009,4.407-5.849c7.378-11.188,11.712-24.834,11.712-39.56c0-12.097-2.931-23.451-8.063-33.321
		c-14.914-30.875-45.392-52.048-80.599-52.048c-13.245,0-27.871,3.118-42.938,10.604c-58.397,29.006-76.418,128.301-37.706,229.842
		l-0.007,0.008c12.631,38.583,44.501,77.959,64.955,94.673c52.399,42.819,112.666,55.939,154.885,28.041
		c2.666-1.766,4.715-4.463,5.54-7.661c0.357-1.414,0.428-2.762-0.205-3.581C637.653,422.573,631.292,425.986,631.292,425.986"/>
	<path fill="#00A0AC" d="M1079.182,425.986c31.404,16.49,86.527-17.791,125.379-78.954c19.229-30.272,31.479-62.624,35.358-89.632
		c3.063-21.324,1.353-42.46-5.105-61.579c-2.229-6.603-4.918-12.47-8.847-17.133c-0.052-0.077-0.097-0.165-0.153-0.237
		c-0.021-0.033-0.045-0.037-0.07-0.022c-1.457-1.699-3.035-3.265-4.751-4.656c-3.271-2.875-6.709-5.187-9.719-6.717
		c-3.656-1.864-7.661-3.223-12.02-3.223c-8.985,0-16.849,4.993-21.271,12.466c-0.041,0.076-0.087,0.155-0.132,0.232
		c-0.393,0.677-0.75,1.374-1.084,2.089c-0.08,0.163-0.153,0.33-0.229,0.499c-0.285,0.636-0.539,1.292-0.768,1.957
		c-0.084,0.231-0.167,0.459-0.244,0.693c-0.201,0.628-0.369,1.267-0.525,1.912c-0.066,0.272-0.142,0.541-0.201,0.815
		c-0.135,0.659-0.236,1.332-0.327,2.008c-0.031,0.264-0.084,0.52-0.114,0.788c-0.095,0.939-0.153,1.892-0.153,2.86
		c0,1.182,0.253,3.613,0.253,3.681c0,9.454-7.156,17.119-15.989,17.119c-5.732,0-14.064-8.191-14.392-8.596
		c-1.372-1.705-3.187-4.009-4.4-5.849c-7.379-11.188-11.714-24.834-11.714-39.56c0-12.097,2.93-23.451,8.061-33.321
		c14.913-30.875,45.39-52.048,80.596-52.048c13.248,0,27.871,3.118,42.943,10.604c58.396,29.006,76.411,128.301,37.702,229.842
		c0.003,0,0.007,0.008,0.007,0.008c-12.628,38.583-44.5,77.959-64.954,94.673c-52.399,42.819-112.663,55.939-154.88,28.041
		c-2.669-1.766-4.72-4.463-5.538-7.661c-0.365-1.414-0.435-2.762,0.198-3.581C1072.824,422.573,1079.182,425.986,1079.182,425.986"
		/>
</g>
</svg>
